<?xml version="1.0" encoding="utf-8"?>
<!-- Svg Vector Icons : http://www.sfont.cn -->
<!DOCTYPE svg PUBLIC "-//W3C//DTD SVG 1.1//EN" "http://www.w3.org/Graphics/SVG/1.1/DTD/svg11.dtd">
<svg version="1.1" xmlns="http://www.w3.org/2000/svg" xmlns:xlink="http://www.w3.org/1999/xlink" x="0px" y="0px" viewBox="0 0 1000 1000" enable-background="new 0 0 1000 1000" xml:space="preserve">
<metadata> Svg Vector Icons : http://www.sfont.cn </metadata>
<g><path d="M828.7,865.4c-2.5-7.6-50.4-20.1-50.4-20.1c-42.8-17.6-42.8-75.5,0-93.3c0,0,45.4-12.5,50.4-20.1c7.6-15.1,20.1-47.9,20.1-47.9c7.6-20.1,25.2-30.3,40.3-30.3c0-70.6,0-141,0-211.6c0-32.7-5.1-65.5-10.2-95.8C841.2,157.3,657.2-1.5,430.5,21.2c-70.6,7.6-133.6,30.3-188.9,65.5l0,0c30.3,12.5,88.2,35.2,88.2,35.2c42.8,17.6,42.8,75.5,0,93.3c0,0-85.7,27.8-88.2,35.2c-12.5,30.3-35.2,88.2-35.2,88.2c-17.6,42.8-75.5,42.8-93.3,0l-27.6-67.7c-22.7,53-32.7,110.9-32.7,171.3c0,128.5,0,257,0,385.5c0,93.3,57.9,151.2,153.7,151.2h214.1c-15.1-5.1-30.3-10.2-45.4-17.6c-136.1-63-201.6-229.4-181.5-375.5c2.5-17.6,10.2-22.7,27.8-25.2C345,548,594.5,497.5,622.1,379c2.5-15.1,5.1-27.8,7.6-42.8c5.1,5.1,7.6,10.2,7.6,15.1c141,176.4,116,246.8,116,236.8c5.1,47.9,5.1,95.8-7.6,143.6C715.4,852.5,652.4,943.3,524,981h108.3c35.2,0,73.1,0,108.3,0c50.4,0,93.3-20.1,118.3-53c-5.1-5.1-7.6-10.2-10.2-15.1C849,913.3,833.7,880.6,828.7,865.4z"/><path d="M921.9,769.8l-27.8-68.1l-27.6,68.1l-68.1,27.6l68.1,27.8l27.6,68.1l27.8-68.1l68.1-27.8L921.9,769.8z"/><path d="M259.4,696.6c78-57.9,168.8,0,168.8,0C337.4,570.7,259.4,696.6,259.4,696.6z"/><path d="M529,696.6c78-57.9,168.8,0,168.8,0C607.1,570.7,529,696.6,529,696.6z"/><path d="M161.2,321.3L204,213l108.3-42.8L204,127.3L161.2,19l-42.8,108.3L10,170.1L118.3,213L161.2,321.3z"/></g>
</svg>