<?xml version="1.0" encoding="utf-8"?>
<!-- Svg Vector Icons : http://www.sfont.cn -->
<!DOCTYPE svg PUBLIC "-//W3C//DTD SVG 1.1//EN" "http://www.w3.org/Graphics/SVG/1.1/DTD/svg11.dtd">
<svg version="1.1" xmlns="http://www.w3.org/2000/svg" xmlns:xlink="http://www.w3.org/1999/xlink" x="0px" y="0px" viewBox="0 0 1000 1000" enable-background="new 0 0 1000 1000" xml:space="preserve">
<metadata> Svg Vector Icons : http://www.sfont.cn </metadata>
<g><path d="M713.1,511.7c0,0,255.5,36.9,276.8-253.8"/><path d="M10,119.5l68.6-68.4l145.8,87.9V227h9.7l364.4,371.9v7.9l39.2-37.2c0,0,35.6-22.6,57,9.7l225.4,234.5c0,0,23.3,20.1,0,47.7l-58.7,68.4"/><path d="M863,927.9L813,977.5c0,0-24.5,18.9-47.8,0l-245-253.5c0,0-15.4-14.1,0-37.7l30-29.4h7.9l-0.6-8.6h-8.4L402,490.5"/><path d="M12.2,117.4l86.6,148h66.8L12.2,117.4z"/><path d="M166.2,979.3c0,0-38,19.5-78.4,0l-49-49.5c0,0-22-39.1,0-86.1l500.4-431.1h9.9l67.9,67.1L166.2,979.3z"/><path d="M546.5,416.7l267.8-90.4l146.9-146.6c0,0,28.7-55.3,28.7,89.6L744.1,505.5l-146.9-114"/><path d="M739.3,12.8c136.3,0.9,84.8,26.9,84.8,26.9L675.6,191.4l-8.3-25.5"/><path d="M546.5,420.8l265.5-93.6L685.4,197.7h-9.7v-6.3l-8.3-32.8L546.5,420.8z"/><path d="M540,424l34.3-40.7l-17.1-8.2L540,424z"/><path d="M559.1,646.5l-9.7,11.1h9.7V646.5z"/><path d="M578.4,340l5,44l-26.2-4.3L578.4,340z"/><path d="M554.2,412.7l-4.8,11.3l63.9,59.9c0,0,46.4,37.1,137.2,25.6"/><path d="M611.9,479.5h25.3l-25.3-81.7l-65.7,19L611.9,479.5z"/><path d="M602.8,405.3l40.1-5.8l101.2,105.9h-13l-87.4-35.8l-31-26.1L602.8,405.3z"/><path d="M540,424c0,0-173.9-344.8,204.1-412"/><path d="M602.8,240.4l56.4,63.5l-85,58l28.6-126.4V240.4z"/><path d="M551.9,406.8l1.5,7.8l-6.9,1.6L551.9,406.8z"/><path d="M674.5,191.4l10.8,6.3l-9.9,1.5L674.5,191.4z"/><path d="M685.4,197.7l-8.6-7.4l-3.3,1.2L685.4,197.7z"/><path d="M234.1,227.1l-9.7-9l-8,9H234.1z"/><path d="M517.4,184.4h149.9l151.3,149.2L685.4,500L517.4,184.4z"/></g>
</svg>